<svg width="1920" height="1001" viewBox="0 0 1920 1001" fill="none" xmlns="http://www.w3.org/2000/svg">
<g clip-path="url(#clip0_1_409)">
<path d="M868.267 565.565L661.333 560.56L797.867 638.972L868.267 565.565Z" fill="#7356B4" stroke="#7356B4" stroke-linejoin="bevel"/>
<path d="M661.333 560.56L593.067 642.308L797.867 638.972L661.333 560.56Z" fill="#9B87C9" stroke="#9B87C9" stroke-linejoin="bevel"/>
<path d="M868.267 565.565L610.133 358.692L661.333 560.56L868.267 565.565Z" fill="#7356B4" stroke="#7356B4" stroke-linejoin="bevel"/>
<path d="M661.333 560.56L407.467 528.862L593.067 642.308L661.333 560.56Z" fill="#7D63BA" stroke="#7D63BA" stroke-linejoin="bevel"/>
<path d="M797.867 638.972L1075.2 602.268L868.267 565.565L797.867 638.972Z" fill="#694AAF" stroke="#694AAF" stroke-linejoin="bevel"/>
<path d="M868.267 565.565L825.6 266.933L610.133 358.692L868.267 565.565Z" fill="#A594CE" stroke="#A594CE" stroke-linejoin="bevel"/>
<path d="M1075.2 602.268L1079.47 542.208L868.267 565.565L1075.2 602.268Z" fill="#5E3EA9" stroke="#5E3EA9" stroke-linejoin="bevel"/>
<path d="M407.467 528.862L494.933 732.398L593.067 642.308L407.467 528.862Z" fill="#A594CE" stroke="#A594CE" stroke-linejoin="bevel"/>
<path d="M633.6 844.177L808.533 859.192L797.867 638.972L633.6 844.177Z" fill="#5E3EA9" stroke="#5E3EA9" stroke-linejoin="bevel"/>
<path d="M797.867 638.972L1117.87 790.79L1075.2 602.268L797.867 638.972Z" fill="#C4BADC" stroke="#C4BADC" stroke-linejoin="bevel"/>
<path d="M471.467 370.37L407.467 528.862L661.333 560.56L471.467 370.37Z" fill="#917BC4" stroke="#917BC4" stroke-linejoin="bevel"/>
<path d="M633.6 844.177L797.867 638.972L593.067 642.308L633.6 844.177Z" fill="#694AAF" stroke="#694AAF" stroke-linejoin="bevel"/>
<path d="M610.133 358.692L471.467 370.37L661.333 560.56L610.133 358.692Z" fill="#876FBF" stroke="#876FBF" stroke-linejoin="bevel"/>
<path d="M1051.73 313.647L825.6 266.933L868.267 565.565L1051.73 313.647Z" fill="#B0A1D3" stroke="#B0A1D3" stroke-linejoin="bevel"/>
<path d="M610.133 358.692L362.667 226.893L471.467 370.37L610.133 358.692Z" fill="#5E3EA9" stroke="#5E3EA9" stroke-linejoin="bevel"/>
<path d="M494.933 732.398L633.6 844.177L593.067 642.308L494.933 732.398Z" fill="#7D63BA" stroke="#7D63BA" stroke-linejoin="bevel"/>
<path d="M1079.47 542.208L1051.73 313.647L868.267 565.565L1079.47 542.208Z" fill="#7356B4" stroke="#7356B4" stroke-linejoin="bevel"/>
<path d="M1051.73 313.647L834.133 210.21L825.6 266.933L1051.73 313.647Z" fill="#917BC4" stroke="#917BC4" stroke-linejoin="bevel"/>
<path d="M825.6 266.933L718.933 155.155L610.133 358.692L825.6 266.933Z" fill="#917BC4" stroke="#917BC4" stroke-linejoin="bevel"/>
<path d="M808.533 859.192L1117.87 790.79L797.867 638.972L808.533 859.192Z" fill="#917BC4" stroke="#917BC4" stroke-linejoin="bevel"/>
<path d="M1256.53 623.957L1233.07 457.123L1079.47 542.208L1256.53 623.957Z" fill="#7D63BA" stroke="#7D63BA" stroke-linejoin="bevel"/>
<path d="M1079.47 542.208L1216 383.717L1051.73 313.647L1079.47 542.208Z" fill="#C4BADC" stroke="#C4BADC" stroke-linejoin="bevel"/>
<path d="M1256.53 623.957L1079.47 542.208L1075.2 602.268L1256.53 623.957Z" fill="#876FBF" stroke="#876FBF" stroke-linejoin="bevel"/>
<path d="M1117.87 790.79L1256.53 623.957L1075.2 602.268L1117.87 790.79Z" fill="#876FBF" stroke="#876FBF" stroke-linejoin="bevel"/>
<path d="M1233.07 457.123L1216 383.717L1079.47 542.208L1233.07 457.123Z" fill="#876FBF" stroke="#876FBF" stroke-linejoin="bevel"/>
<path d="M1051.73 313.647L992 141.808L834.133 210.21L1051.73 313.647Z" fill="#BAADD7" stroke="#BAADD7" stroke-linejoin="bevel"/>
<path d="M226.133 770.77L441.6 875.875L494.933 732.398L226.133 770.77Z" fill="#7D63BA" stroke="#7D63BA" stroke-linejoin="bevel"/>
<path d="M494.933 732.398L441.6 875.875L633.6 844.177L494.933 732.398Z" fill="#B0A1D3" stroke="#B0A1D3" stroke-linejoin="bevel"/>
<path d="M629.333 1001H889.6L808.533 859.192L629.333 1001Z" fill="#B0A1D3" stroke="#B0A1D3" stroke-linejoin="bevel"/>
<path d="M802.133 0L718.933 155.155L834.133 210.21L802.133 0Z" fill="#5E3EA9" stroke="#5E3EA9" stroke-linejoin="bevel"/>
<path d="M834.133 210.21L718.933 155.155L825.6 266.933L834.133 210.21Z" fill="#7356B4" stroke="#7356B4" stroke-linejoin="bevel"/>
<path d="M196.267 537.203L245.333 622.288L407.467 528.862L196.267 537.203Z" fill="#694AAF" stroke="#694AAF" stroke-linejoin="bevel"/>
<path d="M407.467 528.862L245.333 622.288L494.933 732.398L407.467 528.862Z" fill="#C4BADC" stroke="#C4BADC" stroke-linejoin="bevel"/>
<path d="M253.867 323.657L407.467 528.862L471.467 370.37L253.867 323.657Z" fill="#A594CE" stroke="#A594CE" stroke-linejoin="bevel"/>
<path d="M253.867 323.657L196.267 537.203L407.467 528.862L253.867 323.657Z" fill="#694AAF" stroke="#694AAF" stroke-linejoin="bevel"/>
<path d="M629.333 1001L808.533 859.192L633.6 844.177L629.333 1001Z" fill="#7D63BA" stroke="#7D63BA" stroke-linejoin="bevel"/>
<path d="M808.533 859.192L889.6 1001L1117.87 790.79L808.533 859.192Z" fill="#C4BADC" stroke="#C4BADC" stroke-linejoin="bevel"/>
<path d="M441.6 875.875L629.333 1001L633.6 844.177L441.6 875.875Z" fill="#C4BADC" stroke="#C4BADC" stroke-linejoin="bevel"/>
<path d="M1352.53 108.442L992 141.808L1051.73 313.647L1352.53 108.442Z" fill="#7356B4" stroke="#7356B4" stroke-linejoin="bevel"/>
<path d="M718.933 155.155L362.667 226.893L610.133 358.692L718.933 155.155Z" fill="#917BC4" stroke="#917BC4" stroke-linejoin="bevel"/>
<path d="M362.667 226.893L253.867 323.657L471.467 370.37L362.667 226.893Z" fill="#C4BADC" stroke="#C4BADC" stroke-linejoin="bevel"/>
<path d="M0 625.625L226.133 770.77L245.333 622.288L0 625.625Z" fill="#5E3EA9" stroke="#5E3EA9" stroke-linejoin="bevel"/>
<path d="M245.333 622.288L226.133 770.77L494.933 732.398L245.333 622.288Z" fill="#B0A1D3" stroke="#B0A1D3" stroke-linejoin="bevel"/>
<path d="M441.6 875.875L437.333 1001H629.333L441.6 875.875Z" fill="#694AAF" stroke="#694AAF" stroke-linejoin="bevel"/>
<path d="M1147.73 1001L1262.93 847.513L1117.87 790.79L1147.73 1001Z" fill="#694AAF" stroke="#694AAF" stroke-linejoin="bevel"/>
<path d="M1117.87 790.79L1262.93 847.513L1256.53 623.957L1117.87 790.79Z" fill="#9B87C9" stroke="#9B87C9" stroke-linejoin="bevel"/>
<path d="M228.267 1001H437.333L441.6 875.875L228.267 1001Z" fill="#B0A1D3" stroke="#B0A1D3" stroke-linejoin="bevel"/>
<path d="M889.6 1001H1147.73L1117.87 790.79L889.6 1001Z" fill="#694AAF" stroke="#694AAF" stroke-linejoin="bevel"/>
<path d="M1147.73 1001H1205.33L1262.93 847.513L1147.73 1001Z" fill="#A594CE" stroke="#A594CE" stroke-linejoin="bevel"/>
<path d="M992 141.808L802.133 0L834.133 210.21L992 141.808Z" fill="#7356B4" stroke="#7356B4" stroke-linejoin="bevel"/>
<path d="M718.933 155.155L603.733 0L362.667 226.893L718.933 155.155Z" fill="#B0A1D3" stroke="#B0A1D3" stroke-linejoin="bevel"/>
<path d="M1262.93 847.513L1467.73 710.71L1256.53 623.957L1262.93 847.513Z" fill="#B0A1D3" stroke="#B0A1D3" stroke-linejoin="bevel"/>
<path d="M1256.53 623.957L1497.6 478.812L1233.07 457.123L1256.53 623.957Z" fill="#C4BADC" stroke="#C4BADC" stroke-linejoin="bevel"/>
<path d="M1233.07 457.123L1497.6 478.812L1216 383.717L1233.07 457.123Z" fill="#C4BADC" stroke="#C4BADC" stroke-linejoin="bevel"/>
<path d="M1486.93 894.227L1467.73 710.71L1262.93 847.513L1486.93 894.227Z" fill="#876FBF" stroke="#876FBF" stroke-linejoin="bevel"/>
<path d="M802.133 0H603.733L718.933 155.155L802.133 0Z" fill="#876FBF" stroke="#876FBF" stroke-linejoin="bevel"/>
<path d="M0 306.973V478.812L253.867 323.657L0 306.973Z" fill="#876FBF" stroke="#876FBF" stroke-linejoin="bevel"/>
<path d="M1467.73 710.71L1497.6 478.812L1256.53 623.957L1467.73 710.71Z" fill="#C4BADC" stroke="#C4BADC" stroke-linejoin="bevel"/>
<path d="M1352.53 108.442L1030.4 0L992 141.808L1352.53 108.442Z" fill="#694AAF" stroke="#694AAF" stroke-linejoin="bevel"/>
<path d="M992 141.808L1030.4 0H802.133L992 141.808Z" fill="#917BC4" stroke="#917BC4" stroke-linejoin="bevel"/>
<path d="M1352.53 108.442L1051.73 313.647L1216 383.717L1352.53 108.442Z" fill="#7D63BA" stroke="#7D63BA" stroke-linejoin="bevel"/>
<path d="M196.267 537.203L0 625.625L245.333 622.288L196.267 537.203Z" fill="#7D63BA" stroke="#7D63BA" stroke-linejoin="bevel"/>
<path d="M226.133 770.77L228.267 1001L441.6 875.875L226.133 770.77Z" fill="#9B87C9" stroke="#9B87C9" stroke-linejoin="bevel"/>
<path d="M0 478.812V625.625L196.267 537.203L0 478.812Z" fill="#B0A1D3" stroke="#B0A1D3" stroke-linejoin="bevel"/>
<path d="M0 306.973L253.867 323.657L0 223.557V306.973Z" fill="#9B87C9" stroke="#9B87C9" stroke-linejoin="bevel"/>
<path d="M253.867 323.657L0 478.812L196.267 537.203L253.867 323.657Z" fill="#7D63BA" stroke="#7D63BA" stroke-linejoin="bevel"/>
<path d="M0 844.177L228.267 1001L226.133 770.77L0 844.177Z" fill="#917BC4" stroke="#917BC4" stroke-linejoin="bevel"/>
<path d="M603.733 0H430.933L362.667 226.893L603.733 0Z" fill="#694AAF" stroke="#694AAF" stroke-linejoin="bevel"/>
<path d="M1457.07 161.828L1352.53 108.442L1216 383.717L1457.07 161.828Z" fill="#7D63BA" stroke="#7D63BA" stroke-linejoin="bevel"/>
<path d="M128 143.477L253.867 323.657L362.667 226.893L128 143.477Z" fill="#BAADD7" stroke="#BAADD7" stroke-linejoin="bevel"/>
<path d="M430.933 0L128 143.477L362.667 226.893L430.933 0Z" fill="#7D63BA" stroke="#7D63BA" stroke-linejoin="bevel"/>
<path d="M1693.87 383.717L1572.27 398.732L1785.6 438.772L1693.87 383.717Z" fill="#5E3EA9" stroke="#5E3EA9" stroke-linejoin="bevel"/>
<path d="M1497.6 478.812L1572.27 398.732L1216 383.717L1497.6 478.812Z" fill="#917BC4" stroke="#917BC4" stroke-linejoin="bevel"/>
<path d="M1482.67 1001L1486.93 894.227L1262.93 847.513L1482.67 1001Z" fill="#876FBF" stroke="#876FBF" stroke-linejoin="bevel"/>
<path d="M1467.73 710.71L1757.87 712.378L1497.6 478.812L1467.73 710.71Z" fill="#A594CE" stroke="#A594CE" stroke-linejoin="bevel"/>
<path d="M0 625.625V844.177L226.133 770.77L0 625.625Z" fill="#5E3EA9" stroke="#5E3EA9" stroke-linejoin="bevel"/>
<path d="M1572.27 398.732L1457.07 161.828L1216 383.717L1572.27 398.732Z" fill="#917BC4" stroke="#917BC4" stroke-linejoin="bevel"/>
<path d="M128 143.477L0 223.557L253.867 323.657L128 143.477Z" fill="#7356B4" stroke="#7356B4" stroke-linejoin="bevel"/>
<path d="M1205.33 1001H1482.67L1262.93 847.513L1205.33 1001Z" fill="#9B87C9" stroke="#9B87C9" stroke-linejoin="bevel"/>
<path d="M1486.93 894.227L1651.2 779.112L1467.73 710.71L1486.93 894.227Z" fill="#9B87C9" stroke="#9B87C9" stroke-linejoin="bevel"/>
<path d="M1572.27 0H1324.8L1352.53 108.442L1572.27 0Z" fill="#9B87C9" stroke="#9B87C9" stroke-linejoin="bevel"/>
<path d="M1352.53 108.442L1324.8 0H1030.4L1352.53 108.442Z" fill="#B0A1D3" stroke="#B0A1D3" stroke-linejoin="bevel"/>
<path d="M1745.07 1001L1651.2 779.112L1486.93 894.227L1745.07 1001Z" fill="#BAADD7" stroke="#BAADD7" stroke-linejoin="bevel"/>
<path d="M430.933 0H157.867L128 143.477L430.933 0Z" fill="#7356B4" stroke="#7356B4" stroke-linejoin="bevel"/>
<path d="M128 143.477L0 0V223.557L128 143.477Z" fill="#A594CE" stroke="#A594CE" stroke-linejoin="bevel"/>
<path d="M0 844.177V1001H228.267L0 844.177Z" fill="#694AAF" stroke="#694AAF" stroke-linejoin="bevel"/>
<path d="M1785.6 438.772L1572.27 398.732L1497.6 478.812L1785.6 438.772Z" fill="#B0A1D3" stroke="#B0A1D3" stroke-linejoin="bevel"/>
<path d="M1572.27 398.732L1710.93 181.848L1457.07 161.828L1572.27 398.732Z" fill="#B0A1D3" stroke="#B0A1D3" stroke-linejoin="bevel"/>
<path d="M1457.07 161.828L1572.27 0L1352.53 108.442L1457.07 161.828Z" fill="#C4BADC" stroke="#C4BADC" stroke-linejoin="bevel"/>
<path d="M1651.2 779.112L1757.87 712.378L1467.73 710.71L1651.2 779.112Z" fill="#B0A1D3" stroke="#B0A1D3" stroke-linejoin="bevel"/>
<path d="M1920 772.438L1757.87 712.378L1651.2 779.112L1920 772.438Z" fill="#694AAF" stroke="#694AAF" stroke-linejoin="bevel"/>
<path d="M1757.87 712.378L1785.6 438.772L1497.6 478.812L1757.87 712.378Z" fill="#917BC4" stroke="#917BC4" stroke-linejoin="bevel"/>
<path d="M1693.87 383.717L1710.93 181.848L1572.27 398.732L1693.87 383.717Z" fill="#5E3EA9" stroke="#5E3EA9" stroke-linejoin="bevel"/>
<path d="M157.867 0H0L128 143.477L157.867 0Z" fill="#5E3EA9" stroke="#5E3EA9" stroke-linejoin="bevel"/>
<path d="M1920 326.993L1710.93 181.848L1693.87 383.717L1920 326.993Z" fill="#C4BADC" stroke="#C4BADC" stroke-linejoin="bevel"/>
<path d="M1710.93 181.848L1572.27 0L1457.07 161.828L1710.93 181.848Z" fill="#9B87C9" stroke="#9B87C9" stroke-linejoin="bevel"/>
<path d="M1482.67 1001H1745.07L1486.93 894.227L1482.67 1001Z" fill="#9B87C9" stroke="#9B87C9" stroke-linejoin="bevel"/>
<path d="M1757.87 712.378L1920 492.158L1785.6 438.772L1757.87 712.378Z" fill="#5E3EA9" stroke="#5E3EA9" stroke-linejoin="bevel"/>
<path d="M1920 699.032V492.158L1757.87 712.378L1920 699.032Z" fill="#9B87C9" stroke="#9B87C9" stroke-linejoin="bevel"/>
<path d="M1785.6 438.772L1920 326.993L1693.87 383.717L1785.6 438.772Z" fill="#7D63BA" stroke="#7D63BA" stroke-linejoin="bevel"/>
<path d="M1920 772.438V699.032L1757.87 712.378L1920 772.438Z" fill="#9B87C9" stroke="#9B87C9" stroke-linejoin="bevel"/>
<path d="M1745.07 1001L1920 772.438L1651.2 779.112L1745.07 1001Z" fill="#9B87C9" stroke="#9B87C9" stroke-linejoin="bevel"/>
<path d="M1920 492.158V326.993L1785.6 438.772L1920 492.158Z" fill="#A594CE" stroke="#A594CE" stroke-linejoin="bevel"/>
<path d="M1710.93 181.848L1766.4 0H1572.27L1710.93 181.848Z" fill="#A594CE" stroke="#A594CE" stroke-linejoin="bevel"/>
<path d="M1920 146.813L1766.4 0L1710.93 181.848L1920 146.813Z" fill="#7356B4" stroke="#7356B4" stroke-linejoin="bevel"/>
<path d="M1920 326.993V146.813L1710.93 181.848L1920 326.993Z" fill="#876FBF" stroke="#876FBF" stroke-linejoin="bevel"/>
<path d="M1745.07 1001H1920V772.438L1745.07 1001Z" fill="#BAADD7" stroke="#BAADD7" stroke-linejoin="bevel"/>
<path d="M1920 146.813V0H1766.4L1920 146.813Z" fill="#C4BADC" stroke="#C4BADC" stroke-linejoin="bevel"/>
</g>
<defs>
<clipPath id="clip0_1_409">
<rect width="1920" height="1001" fill="white"/>
</clipPath>
</defs>
</svg>
