<svg width="66" height="70" viewBox="0 0 66 70" fill="none" xmlns="http://www.w3.org/2000/svg">
<path d="M10.8036 15.2125C9.90944 15.3123 8.89762 15.5369 8.59172 15.7116L8.02698 16.0361L8.19169 32.5326C8.28582 42.0412 8.45053 49.1539 8.56819 49.2787C8.70937 49.4285 9.53295 49.3785 10.733 49.2038C15.9804 48.3553 19.3453 48.6298 23.6279 50.2021C28.2635 51.8992 27.7223 51.8493 30.2636 50.9758C33.2285 49.9526 36.5464 49.3286 36.9699 49.703C37.1817 49.9026 37.2758 50.6264 37.2758 51.9242C37.2758 53.3467 37.3699 53.9457 37.6288 54.1703C38.1229 54.5945 42.8291 54.3699 44.8057 53.7959C46.3117 53.3717 48.453 52.3484 49.3942 51.5997C49.8177 51.2503 49.8883 50.851 49.9825 48.0059L50.1001 44.8114L51.159 44.487C54.6886 43.3639 56.1711 42.2658 57.277 39.8699C59.7713 34.4792 56.9476 28.265 51.7473 27.7409L50.3354 27.5911L50.2178 24.3467C50.1472 22.5498 49.9825 20.8777 49.8177 20.6032C49.1824 19.4302 47.0176 18.0077 44.3351 16.9844C42.9467 16.4603 42.4055 16.3854 38.4524 16.3854C33.6285 16.3605 32.8755 16.5102 29.4871 18.1574L27.6988 19.0059L26.3104 18.357C20.5219 15.6118 15.7922 14.6634 10.8036 15.2125ZM19.4159 17.9577C22.0278 18.6316 24.5692 19.6548 25.7457 20.5033L26.3104 20.9027L26.4046 34.9035C26.4752 42.8398 26.4281 48.9293 26.3104 48.9293C26.1928 48.9293 25.5339 48.7047 24.828 48.4052C22.0043 47.2822 18.757 46.6582 15.5804 46.6582C13.9332 46.6582 12.1684 46.783 11.6272 46.9328C11.1095 47.0825 10.5683 47.1324 10.4507 47.0575C10.3095 46.9577 10.2153 41.4921 10.2153 32.2082V17.5085L11.1095 17.3588C11.5801 17.2589 12.1449 17.1591 12.3331 17.1092C13.2508 16.8596 16.9452 17.3089 19.4159 17.9577ZM43.2762 18.8063C44.641 19.2305 46.3587 20.2039 47.2529 21.1023C47.9588 21.7761 48.0059 22.0507 47.5353 22.45C47.2764 22.6996 47.0176 22.6746 46.4058 22.3252C44.2174 21.1273 38.5465 20.3786 36.0757 20.9526C34.1933 21.4268 33.9815 21.5016 33.9815 21.7013C33.9815 21.8261 34.9698 21.851 36.1699 21.7761C39.9583 21.5765 46.0058 22.999 45.6763 24.0223C45.5587 24.4216 44.3115 24.4216 40.9231 23.9973C38.2641 23.6479 36.2169 23.7477 34.5698 24.2718C33.6991 24.5713 33.8638 24.5963 36.9228 24.7211C40.2407 24.8708 42.0761 25.2701 41.9114 25.7942C41.8173 26.1436 40.4289 26.4431 38.8053 26.4431C38.1465 26.4681 37.4876 26.5928 37.3229 26.7675C37.1111 26.9922 37.0405 29.6625 37.0405 37.2245V47.357L35.5816 47.5317C34.758 47.6316 32.8991 48.0558 31.4402 48.4801C29.9813 48.9044 28.7106 49.1789 28.6165 49.0791C28.5223 48.9792 28.4282 42.6651 28.3812 35.0532L28.3341 21.2271L30.5225 20.129C32.4991 19.1307 33.605 18.7314 35.3933 18.382C36.5699 18.1574 42.1232 18.4569 43.2762 18.8063ZM53.9592 30.6608C56.3829 32.7073 56.9711 35.9267 55.5122 39.0713C54.7828 40.6686 53.7945 41.5171 52.0061 42.0662C49.8177 42.74 49.9119 43.0644 50.1001 36.1264C50.1942 32.8071 50.3354 29.987 50.406 29.8622C50.4531 29.7374 51.1119 29.7125 51.8179 29.7873C52.7591 29.8872 53.3474 30.1367 53.9592 30.6608Z" fill="#8d27ae"/>
</svg>

